{
  "accessors": [
    {
      "bufferView": 2,
      "componentType": 5126,
      "count": 4612,
      "max": [
        -10.032194137573242,
        6.717209815979004,
        29.378582000732422
      ],
      "min": [
        -20.426183700561523,
        -2.7098770141601563,
        1.0238200426101685
      ],
      "type": "VEC3"
    },
    {
      "bufferView": 2,
      "byteOffset": 55344,
      "componentType": 5126,
      "count": 4612,
      "max": [
        0.9951630234718323,
        0.9950842261314392,
        0.8184159994125366
      ],
      "min": [
        -0.9937077164649963,
        -0.9950842261314392,
        -0.9982165098190308
      ],
      "type": "VEC3"
    },
    {
      "bufferView": 1,
      "componentType": 5126,
      "count": 4612,
      "max": [
        1.0,
        1.0
      ],
      "min": [
        0.0,
        0.009999999776482582
      ],
      "type": "VEC2"
    },
    {
      "bufferView": 0,
      "componentType": 5125,
      "count": 25716,
      "type": "SCALAR"
    },
    {
      "bufferView": 2,
      "byteOffset": 110688,
      "componentType": 5126,
      "count": 896,
      "max": [
        -11.932076454162598,
        3.647351026535034,
        30.17752456665039
      ],
      "min": [
        -16.05929183959961,
        -0.41531699895858765,
        28.057281494140625
      ],
      "type": "VEC3"
    },
    {
      "bufferView": 2,
      "byteOffset": 121440,
      "componentType": 5126,
      "count": 896,
      "max": [
        0.9937077164649963,
        0.9945213198661804,
        0.9982165098190308
      ],
      "min": [
        -0.9951626658439636,
        -0.9914571046829224,
        -0.9998856782913208
      ],
      "type": "VEC3"
    },
    {
      "bufferView": 1,
      "byteOffset": 36896,
      "componentType": 5126,
      "count": 896,
      "max": [
        0.49047398567199707,
        0.49047398567199707
      ],
      "min": [
        0.00952600035816431,
        0.00952600035816431
      ],
      "type": "VEC2"
    },
    {
      "bufferView": 0,
      "byteOffset": 102864,
      "componentType": 5125,
      "count": 5172,
      "type": "SCALAR"
    }
  ],
  "asset": {
    "extras": {
      "author": "Jeremy E. Grayson (https://sketchfab.com/JeremyGrayson)",
      "license": "CC-BY-4.0 (http://creativecommons.org/licenses/by/4.0/)",
      "source": "https://sketchfab.com/3d-models/plastic-water-bottle-efa1c4c1f2a947659ded2e61e20eff31",
      "title": "Plastic Water Bottle"
    },
    "generator": "Sketchfab-12.64.0",
    "version": "2.0"
  },
  "bufferViews": [
    {
      "buffer": 0,
      "byteLength": 123552,
      "name": "floatBufferViews",
      "target": 34963
    },
    {
      "buffer": 0,
      "byteLength": 44064,
      "byteOffset": 123552,
      "byteStride": 8,
      "name": "floatBufferViews",
      "target": 34962
    },
    {
      "buffer": 0,
      "byteLength": 132192,
      "byteOffset": 167616,
      "byteStride": 12,
      "name": "floatBufferViews",
      "target": 34962
    }
  ],
  "buffers": [
    {
      "byteLength": 299808,
      "uri": "scene.bin"
    }
  ],
  "extensionsUsed": [
    "KHR_materials_clearcoat",
    "KHR_materials_transmission"
  ],
  "materials": [
    {
      "alphaMode": "BLEND",
      "doubleSided": true,
      "emissiveFactor": [
        0.01714939024390244,
        0.01714939024390244,
        0.01714939024390244
      ],
      "extensions": {
        "KHR_materials_clearcoat": {
          "clearcoatFactor": 0.3553734756097561,
          "clearcoatRoughnessFactor": 0.0
        },
        "KHR_materials_transmission": {
          "transmissionFactor": 0.9799923780487805
        }
      },
      "name": "Material.023",
      "pbrMetallicRoughness": {
        "baseColorFactor": [
          1.0,
          1.0,
          1.0,
          0.25
        ],
        "metallicFactor": 0.2761051829268293,
        "roughnessFactor": 0.0
      }
    },
    {
      "doubleSided": true,
      "extensions": {
        "KHR_materials_clearcoat": {
          "clearcoatFactor": 0.0626905487804878,
          "clearcoatRoughnessFactor": 0.17244664634146342
        }
      },
      "name": "Material.024",
      "pbrMetallicRoughness": {
        "baseColorFactor": [
          0.04742753190225878,
          0.34603240790364337,
          0.42197790782417816,
          1.0
        ],
        "metallicFactor": 0.0,
        "roughnessFactor": 0.4651295731707317
      }
    }
  ],
  "meshes": [
    {
      "name": "Object_0",
      "primitives": [
        {
          "attributes": {
            "NORMAL": 1,
            "POSITION": 0,
            "TEXCOORD_0": 2
          },
          "indices": 3,
          "material": 0,
          "mode": 4
        }
      ]
    },
    {
      "name": "Object_1",
      "primitives": [
        {
          "attributes": {
            "NORMAL": 5,
            "POSITION": 4,
            "TEXCOORD_0": 6
          },
          "indices": 7,
          "material": 1,
          "mode": 4
        }
      ]
    }
  ],
  "nodes": [
    {
      "children": [
        1
      ],
      "matrix": [
        1.0,
        0.0,
        0.0,
        0.0,
        0.0,
        2.220446049250313e-16,
        -1.0,
        0.0,
        0.0,
        1.0,
        2.220446049250313e-16,
        0.0,
        0.0,
        0.0,
        0.0,
        1.0
      ],
      "name": "Sketchfab_model"
    },
    {
      "children": [
        2,
        3
      ],
      "name": "Waterbottle.obj.cleaner.materialmerger.gles"
    },
    {
      "mesh": 0,
      "name": "Object_2"
    },
    {
      "mesh": 1,
      "name": "Object_3"
    }
  ],
  "scene": 0,
  "scenes": [
    {
      "name": "Sketchfab_Scene",
      "nodes": [
        0
      ]
    }
  ]
}
